<svg width="24" height="24" viewBox="0 0 24 24" fill="none" xmlns="http://www.w3.org/2000/svg">
<mask id="mask0_3329_3761" style="mask-type:alpha" maskUnits="userSpaceOnUse" x="0" y="0" width="24" height="22">
<path d="M4.94658 21.7082C2.89641 20.2187 1.37042 18.1183 0.587322 15.7082C-0.195774 13.2981 -0.195774 10.7019 0.587322 8.2918C1.37042 5.88168 2.89641 3.78133 4.94658 2.2918C6.99675 0.802259 9.46585 -3.02195e-08 12 0C14.5342 3.02195e-08 17.0033 0.80226 19.0534 2.2918C21.1036 3.78133 22.6296 5.88168 23.4127 8.2918C24.1958 10.7019 24.1958 13.2981 23.4127 15.7082C22.6296 18.1183 21.1036 20.2187 19.0534 21.7082L17.6427 19.7666C19.2829 18.5749 20.5037 16.8947 21.1301 14.9666C21.7566 13.0385 21.7566 10.9615 21.1301 9.03344C20.5037 7.10534 19.2829 5.42507 17.6427 4.23344C16.0026 3.04181 14.0273 2.4 12 2.4C9.97268 2.4 7.9974 3.04181 6.35726 4.23344C4.71712 5.42507 3.49633 7.10534 2.86986 9.03344C2.24338 10.9615 2.24338 13.0385 2.86986 14.9666C3.49633 16.8947 4.71712 18.5749 6.35726 19.7666L4.94658 21.7082Z" fill="white"/>
</mask>
<g mask="url(#mask0_3329_3761)">
<path d="M-0.714127 7.6126C-1.69586 10.465 -1.69584 13.5637 -0.714078 16.4161C0.267686 19.2685 2.17484 21.7108 4.70416 23.3548L12.0749 12.0143L-0.714127 7.6126Z" fill="#FF0000"/>
<path d="M-0.716759 7.61143C0.229169 4.91635 2.00402 2.5899 4.35343 0.965535C6.70283 -0.658832 9.50616 -1.49773 12.3617 -1.43093L12.0453 12.0907L-0.716759 7.61143Z" fill="url(#paint0_linear_3329_3761)"/>
<path d="M24.9665 8.13802C24.1475 5.40168 22.4833 2.99485 20.2124 1.26248C17.9414 -0.469892 15.1803 -1.43886 12.3249 -1.50555L12.0091 12.0161L24.9665 8.13802Z" fill="url(#paint1_linear_3329_3761)"/>
<path d="M18.9417 23.6038C21.5155 22.0487 23.4976 19.6802 24.5748 16.8727C25.652 14.0652 25.7629 10.9788 24.8899 8.10119L11.9471 12.0276L18.9417 23.6038Z" fill="url(#paint2_linear_3329_3761)"/>
</g>
<defs>
<linearGradient id="paint0_linear_3329_3761" x1="12.2623" y1="1.31209" x2="1.87475" y2="8.51209" gradientUnits="userSpaceOnUse">
<stop stop-color="#FFA700"/>
<stop offset="1" stop-color="#996400"/>
</linearGradient>
<linearGradient id="paint1_linear_3329_3761" x1="22.3876" y1="8.84989" x2="12.2626" y2="1.34989" gradientUnits="userSpaceOnUse">
<stop stop-color="#FFF400"/>
<stop offset="1" stop-color="#999200"/>
</linearGradient>
<linearGradient id="paint2_linear_3329_3761" x1="22.6117" y1="8.85045" x2="18.4117" y2="20.8505" gradientUnits="userSpaceOnUse">
<stop stop-color="#2CBA00"/>
<stop offset="1" stop-color="#145400"/>
</linearGradient>
</defs>
</svg>
